<?xml version="1.0" standalone="no"?>
<!DOCTYPE svg PUBLIC "-//W3C//DTD SVG 20010904//EN"
 "http://www.w3.org/TR/2001/REC-SVG-20010904/DTD/svg10.dtd">
<svg version="1.0" xmlns="http://www.w3.org/2000/svg"
 width="2000.000000pt" height="2000.000000pt" viewBox="0 0 2000.000000 2000.000000"
 preserveAspectRatio="xMidYMid meet">
<metadata>
Created by potrace 1.16, written by Peter Selinger 2001-2019
</metadata>
<g transform="translate(0.000000,2000.000000) scale(0.100000,-0.100000)"
fill="#000000" stroke="none">
<path d="M5691 14598 c4 -827 9 -1519 13 -1538 3 -19 10 -100 16 -180 28 -366
86 -781 166 -1180 363 -1813 1235 -3519 2490 -4875 110 -118 476 -482 604
-600 258 -238 598 -513 937 -758 l92 -67 68 47 c87 59 319 234 448 337 734
586 1372 1258 1915 2015 1048 1463 1690 3185 1854 4976 36 391 38 488 43 1903
l5 1422 -4329 0 -4328 0 6 -1502z m8204 -130 c0 -1212 -3 -1333 -40 -1703 -72
-705 -205 -1355 -412 -2000 -324 -1016 -821 -1985 -1448 -2829 -482 -647
-1047 -1242 -1635 -1720 -80 -65 -154 -125 -165 -134 -69 -56 -174 -132 -183
-132 -11 0 -232 168 -372 284 -354 292 -741 664 -1035 996 -76 85 -152 171
-169 190 -17 19 -70 82 -116 140 -98 121 -83 102 -200 253 -50 64 -95 117
-100 117 -6 0 -10 6 -10 13 0 7 -22 45 -49 83 -124 175 -277 403 -371 553
-561 899 -989 1933 -1221 2951 -56 245 -93 439 -143 760 -44 281 -82 692 -96
1060 -9 237 -14 2302 -6 2311 3 2 1752 3 3888 2 l3883 -3 0 -1192z"/>
<path d="M6310 14483 c0 -938 6 -1243 30 -1543 10 -115 14 -132 51 -210 147
-310 405 -596 849 -945 142 -111 394 -291 820 -585 162 -112 354 -247 426
-301 397 -296 668 -567 818 -817 39 -65 119 -242 113 -248 -2 -3 -24 5 -48 15
-46 21 -231 41 -370 41 l-69 0 0 -1371 0 -1372 93 -95 c104 -107 414 -401 488
-463 l49 -41 0 1899 0 1898 -77 25 c-170 55 -372 167 -514 286 -305 254 -506
606 -570 1000 -19 115 -16 397 5 514 101 559 466 1013 986 1227 186 77 380
113 606 113 294 0 547 -65 789 -202 511 -290 825 -825 825 -1408 0 -645 -391
-1235 -985 -1485 l-100 -42 -3 -1888 -2 -1887 62 53 c35 30 179 169 321 309
l257 255 0 1358 0 1357 -82 0 c-160 0 -349 -19 -396 -40 -25 -11 -47 -18 -49
-16 -8 7 64 165 113 248 73 123 175 251 318 394 219 218 424 378 976 759 579
400 768 540 994 734 266 228 492 496 599 707 34 68 37 80 53 260 15 162 18
353 21 1347 l4 1157 -3700 0 -3701 0 0 -997z m3765 360 l69 -213 236 0 c187
-1 232 -3 219 -13 -10 -7 -94 -68 -188 -135 -94 -68 -171 -130 -171 -137 0 -7
31 -108 69 -224 38 -116 66 -211 64 -211 -3 0 -85 58 -182 128 -97 71 -181
131 -187 135 -6 3 -93 -54 -195 -128 -101 -74 -186 -135 -189 -135 -3 0 26 98
65 218 40 119 71 220 69 223 -2 3 -74 57 -160 120 -86 63 -169 124 -183 136
l-26 22 232 1 232 0 71 221 c39 122 75 218 79 213 3 -5 38 -105 76 -221z
m-2517 -1165 c12 -40 44 -138 70 -218 l48 -145 234 -5 233 -5 -115 -85 c-64
-47 -148 -107 -187 -135 -38 -27 -70 -53 -71 -56 0 -3 31 -102 70 -220 38
-117 67 -215 65 -217 -2 -3 -85 55 -184 127 -100 72 -186 131 -192 131 -6 0
-92 -59 -191 -131 -99 -72 -181 -129 -183 -127 -2 2 12 51 31 108 63 194 106
331 102 334 -1 1 -86 63 -188 137 l-185 134 235 5 234 5 68 205 c37 113 68
211 68 218 0 33 18 4 38 -60z m5052 -148 l71 -220 230 0 c126 0 229 -3 229 -7
0 -5 -51 -44 -112 -88 -160 -114 -253 -186 -252 -193 1 -4 32 -99 68 -211 37
-112 65 -208 64 -213 -2 -5 -87 51 -188 126 l-185 134 -30 -22 c-16 -13 -88
-65 -160 -116 -71 -51 -139 -101 -151 -112 -11 -10 -25 -18 -30 -18 -6 0 18
87 53 193 34 105 65 206 69 222 5 30 1 34 -175 160 -99 72 -180 133 -181 138
0 4 103 7 229 7 l229 0 72 220 c39 121 73 220 75 220 2 0 36 -99 75 -220z"/>
<path d="M9830 13449 c-186 -23 -349 -69 -508 -145 -104 -50 -107 -54 -117
-162 l-7 -71 38 -6 c147 -24 282 -62 369 -105 59 -29 60 -29 90 -10 96 59 372
148 558 180 60 10 111 21 114 24 8 8 52 196 53 223 0 18 -9 25 -41 33 -144 39
-404 58 -549 39z"/>
<path d="M9070 13153 c-174 -131 -363 -351 -452 -526 l-30 -60 29 7 c100 24
99 24 146 96 92 137 225 280 328 352 46 32 46 32 55 110 5 43 7 78 4 78 -3 -1
-39 -26 -80 -57z"/>
<path d="M10263 13075 c-183 -34 -407 -105 -525 -167 -44 -23 -60 -38 -67 -62
-21 -70 -72 -279 -95 -396 -24 -118 -25 -126 -8 -141 9 -9 132 -114 272 -234
140 -120 276 -237 302 -261 l46 -43 114 30 c313 83 528 156 539 184 28 68 79
471 79 624 l0 85 -92 89 c-109 105 -222 193 -332 259 -88 53 -106 56 -233 33z"/>
<path d="M11080 12667 l-96 -10 -12 -166 c-6 -91 -25 -249 -42 -351 l-32 -186
67 -99 c77 -114 132 -227 172 -351 l28 -85 60 6 c66 8 212 48 254 69 24 13 29
26 45 103 23 110 32 380 18 489 -14 100 -61 213 -144 346 -76 122 -182 249
-206 246 -9 0 -60 -6 -112 -11z"/>
<path d="M6380 12537 c0 -25 66 -449 91 -578 84 -452 211 -928 367 -1376 l45
-133 56 8 c109 14 538 7 671 -12 465 -64 951 -189 1430 -367 91 -33 173 -63
183 -66 14 -4 10 7 -19 53 -149 235 -389 470 -764 750 -135 101 -261 190 -695
489 -492 340 -745 538 -967 757 -150 148 -248 262 -333 388 -64 94 -65 96 -65
87z"/>
<path d="M8633 12520 c-34 -10 -66 -21 -72 -24 -15 -10 -76 -206 -98 -311 -25
-125 -25 -432 0 -560 17 -89 89 -326 107 -355 8 -13 18 -12 77 9 37 13 93 37
124 52 l56 28 6 178 c5 183 21 299 63 460 l24 93 -40 65 c-58 94 -126 233
-150 306 -12 35 -25 67 -28 70 -4 4 -35 -1 -69 -11z"/>
<path d="M13605 12488 c-134 -203 -454 -523 -737 -736 -29 -23 -75 -58 -103
-79 -90 -70 -391 -281 -745 -525 -552 -380 -840 -618 -1033 -851 -78 -94 -179
-238 -172 -245 2 -2 41 11 87 28 336 130 778 263 1098 329 385 80 623 106 905
97 110 -3 211 -7 225 -8 23 -3 27 4 58 92 199 573 349 1197 437 1826 8 59 13
109 11 111 -1 2 -16 -16 -31 -39z"/>
<path d="M9440 12254 c-115 -40 -348 -128 -404 -154 l-62 -28 -27 -108 c-38
-159 -58 -310 -61 -474 l-3 -145 68 -80 c84 -101 188 -199 324 -306 103 -82
93 -79 208 -48 251 68 570 187 586 218 9 17 30 162 56 386 8 72 18 149 21 172
l5 42 -158 138 c-87 76 -214 185 -282 243 -68 58 -137 117 -155 132 -35 32
-53 33 -116 12z"/>
<path d="M11393 11404 c-40 -13 -109 -28 -154 -34 -45 -5 -83 -11 -84 -12 -98
-183 -175 -288 -312 -428 -96 -98 -103 -108 -103 -145 0 -41 -25 -212 -36
-254 l-7 -24 49 29 c283 162 502 391 643 671 34 69 91 205 91 219 0 6 -10 4
-87 -22z"/>
<path d="M9970 11014 c-95 -40 -296 -108 -487 -164 l-73 -22 0 -101 c0 -61 5
-111 13 -125 21 -41 259 -157 459 -224 l120 -40 122 12 c131 11 242 35 371 77
112 36 132 48 144 85 16 49 41 205 41 253 l0 42 -62 12 c-142 27 -310 98 -450
190 -42 28 -80 51 -85 50 -4 -1 -55 -21 -113 -45z"/>
<path d="M9264 10529 c-5 -9 164 -81 261 -112 146 -46 254 -63 157 -24 -63 25
-171 78 -236 114 -52 30 -67 34 -119 31 -32 -1 -61 -6 -63 -9z"/>
<path d="M12695 10408 c-337 -18 -770 -102 -1217 -237 -168 -51 -409 -130
-418 -138 -2 -2 72 -1 165 2 257 10 706 -16 965 -56 258 -39 519 -110 699
-188 40 -18 74 -31 76 -29 8 9 136 312 191 453 44 113 59 162 51 167 -16 8
-191 27 -292 30 -44 2 -143 0 -220 -4z"/>
<path d="M6940 10360 c-36 -5 -75 -12 -87 -15 l-22 -5 19 -53 c20 -58 148
-369 201 -489 26 -59 38 -76 49 -71 434 188 995 278 1669 267 123 -1 222 -2
220 0 -7 6 -239 83 -359 120 -339 104 -655 177 -950 221 -144 22 -220 27 -425
30 -137 2 -279 0 -315 -5z"/>
<path d="M10230 10303 c-55 -10 -128 -13 -270 -9 -107 2 -204 6 -215 8 -20 3
-20 -3 -23 -1943 l-2 -1945 27 -26 c42 -39 256 -208 264 -208 4 0 76 55 159
123 84 67 161 128 171 136 18 13 19 65 19 1947 l0 1934 -27 -1 c-16 -1 -62 -8
-103 -16z"/>
<path d="M11320 8668 c0 -1208 1 -1272 18 -1252 9 12 62 75 118 140 139 165
282 345 397 501 l97 132 0 859 0 859 -57 7 c-56 6 -458 26 -535 26 l-38 0 0
-1272z"/>
<path d="M8380 9889 c-102 -5 -191 -11 -198 -14 -10 -3 -12 -191 -12 -913 l0
-909 92 -119 c143 -187 342 -427 466 -564 l41 -45 -2 1285 -2 1285 -100 1
c-55 1 -183 -3 -285 -7z"/>
<path d="M12110 9158 c0 -412 4 -728 9 -723 18 20 178 276 269 430 193 327
451 830 434 847 -32 32 -465 143 -669 172 l-43 6 0 -732z"/>
<path d="M7895 9844 c-178 -27 -389 -76 -524 -120 -75 -24 -142 -48 -150 -53
-10 -7 11 -56 95 -222 190 -375 353 -657 575 -994 l119 -180 0 793 c0 627 -3
792 -12 791 -7 -1 -53 -7 -103 -15z"/>
<path d="M6611 4886 c-211 -41 -375 -205 -425 -426 -36 -160 -28 -329 20 -427
32 -66 102 -128 168 -149 31 -10 103 -18 186 -21 221 -8 335 26 443 134 65 64
132 189 164 303 23 87 24 306 1 366 -41 105 -117 180 -213 209 -71 22 -253 28
-344 11z m200 -122 c23 -24 24 -32 23 -142 -2 -261 -107 -583 -208 -637 -91
-49 -132 46 -107 253 32 261 121 489 210 537 38 20 54 18 82 -11z"/>
<path d="M7695 4885 c-105 -22 -190 -68 -265 -144 -109 -110 -162 -239 -175
-428 -18 -259 71 -405 270 -442 83 -15 257 -13 340 4 103 22 165 57 234 130
68 74 128 188 157 300 25 98 25 291 0 360 -39 107 -113 181 -210 211 -73 22
-264 27 -351 9z m202 -119 c28 -24 28 -25 27 -138 -3 -269 -114 -606 -213
-648 -91 -37 -126 52 -101 261 28 242 114 469 199 526 43 29 53 29 88 -1z"/>
<path d="M14191 4885 c-113 -21 -213 -75 -298 -160 -127 -127 -178 -272 -171
-485 4 -100 8 -123 33 -178 62 -138 192 -202 415 -202 120 0 234 23 333 68
l63 29 28 134 c15 74 30 142 32 152 5 16 -6 17 -144 17 l-149 0 -17 -62 c-47
-168 -113 -242 -191 -212 -48 19 -61 138 -35 323 42 307 156 518 255 473 36
-17 48 -70 37 -181 -6 -66 -5 -94 3 -97 6 -3 71 -3 145 -2 l134 3 27 140 c15
77 28 144 28 148 1 12 -114 62 -184 81 -85 23 -253 29 -344 11z"/>
<path d="M5546 4881 c-3 -5 -17 -60 -31 -123 -46 -216 -185 -876 -185 -882 0
-3 78 -6 173 -6 l172 0 50 238 50 237 137 3 c150 3 142 -1 153 75 l7 46 -134
3 -135 3 31 145 31 145 165 3 166 2 10 56 c5 30 8 57 5 59 -9 9 -660 5 -665
-4z"/>
<path d="M8357 4830 l-15 -60 124 0 c117 0 124 -1 124 -20 0 -11 -18 -102 -39
-202 -22 -101 -61 -282 -86 -403 -25 -121 -50 -232 -55 -247 l-9 -28 177 0
177 0 43 205 c23 112 66 315 94 450 l52 245 128 0 127 0 10 38 c22 86 71 77
-410 80 l-426 2 -16 -60z"/>
<path d="M9315 4813 c-9 -43 -25 -118 -35 -168 -11 -49 -31 -142 -44 -205 -30
-135 -104 -490 -113 -537 l-6 -33 290 0 c254 0 299 2 366 19 88 23 127 41 182
86 87 70 128 211 91 309 -17 45 -80 116 -103 116 -23 0 -14 15 20 34 169 98
179 331 16 413 -67 34 -152 43 -411 43 l-237 0 -16 -77z m454 -69 c21 -25 23
-35 19 -98 -5 -76 -25 -125 -65 -162 -21 -19 -37 -24 -79 -24 -30 0 -54 2 -54
5 0 8 61 289 66 304 8 24 85 7 113 -25z m-96 -414 c40 -32 51 -78 37 -158 -22
-133 -84 -202 -183 -202 l-45 0 28 133 c15 72 33 158 40 190 l11 57 43 0 c28
0 52 -7 69 -20z"/>
<path d="M10493 4853 c-8 -21 -73 -162 -143 -313 -176 -379 -248 -534 -281
-607 l-28 -63 78 0 78 0 56 123 55 122 148 0 149 0 7 -70 c3 -38 7 -94 9 -122
l2 -53 189 0 c103 0 188 2 188 5 0 11 -100 933 -105 973 l-6 42 -190 0 -190 0
-16 -37z m75 -340 c7 -76 15 -168 19 -205 l6 -68 -112 0 c-61 0 -111 3 -111 7
0 12 175 403 181 403 3 0 11 -62 17 -137z"/>
<path d="M11285 4868 c-3 -13 -37 -174 -76 -358 -39 -184 -84 -397 -100 -473
-16 -76 -29 -145 -29 -153 0 -12 52 -14 334 -14 l333 0 12 57 c6 31 11 62 11
70 0 10 -33 13 -160 13 -88 0 -160 1 -160 3 0 1 42 197 93 435 52 238 91 434
89 437 -3 3 -81 5 -173 5 -167 0 -169 0 -174 -22z"/>
<path d="M12056 4873 c-2 -10 -16 -72 -30 -138 -36 -171 -133 -631 -160 -757
l-23 -108 337 0 337 0 6 38 c4 20 9 52 13 70 l7 32 -162 0 -161 0 5 23 c12 56
176 824 178 837 2 13 -24 15 -170 18 -157 2 -172 1 -177 -15z"/>
<path d="M13096 4878 c-3 -7 -30 -137 -62 -288 -31 -151 -78 -374 -103 -495
l-47 -220 169 -3 c94 -1 172 0 174 2 4 4 57 243 93 419 l11 57 138 0 138 0 7
38 c3 20 9 47 12 60 l6 22 -136 0 -137 0 7 38 c3 20 17 86 30 146 13 60 24
111 24 113 0 1 74 3 164 3 l164 0 11 50 c6 28 11 55 11 60 0 16 -670 13 -674
-2z"/>
</g>
</svg>
